<svg width="42" height="41" viewBox="0 0 42 41" fill="none" xmlns="http://www.w3.org/2000/svg">
<g id="Home_Button">
<rect width="42" height="41" fill="black"/>
<circle id="Ellipse 2" cx="21" cy="20" r="14" fill="black" stroke="white" stroke-width="2"/>
<path id="Rectangle 4" d="M16 28C15.4477 28 15 27.5523 15 27V19C15 17.8954 15.8954 17 17 17V17V27C17 27.5523 16.5523 28 16 28V28Z" fill="white"/>
<path id="Rectangle 6" d="M12.2894 20.6099C11.8989 20.2194 11.8989 19.5862 12.2894 19.1957L21.0111 10.474L22.4253 11.8883L13.7036 20.6099C13.3131 21.0005 12.6799 21.0005 12.2894 20.6099V20.6099Z" fill="white"/>
<path id="Rectangle 7" d="M29.7803 20.6525C29.3898 21.043 28.7567 21.043 28.3661 20.6525L20 12.2864L21.4142 10.8722L29.7803 19.2383C30.1709 19.6288 30.1709 20.262 29.7803 20.6525V20.6525Z" fill="white"/>
<rect id="Rectangle 5" x="25" y="28" width="11" height="2" rx="1" transform="rotate(-90 25 28)" fill="white"/>
</g>
</svg>
